<?xml version="1.0" encoding="UTF-8" standalone="no"?>
<!-- Created with Inkscape (http://www.inkscape.org/) -->

<svg
   xmlns:dc="http://purl.org/dc/elements/1.1/"
   xmlns:cc="http://creativecommons.org/ns#"
   xmlns:rdf="http://www.w3.org/1999/02/22-rdf-syntax-ns#"
   xmlns:svg="http://www.w3.org/2000/svg"
   xmlns="http://www.w3.org/2000/svg"
   xmlns:sodipodi="http://sodipodi.sourceforge.net/DTD/sodipodi-0.dtd"
   xmlns:inkscape="http://www.inkscape.org/namespaces/inkscape"
   width="45.155556mm"
   height="45.155556mm"
   viewBox="0 0 160 160"
   id="svg2"
   version="1.1"
   inkscape:version="0.91 r13725"
   sodipodi:docname="新文件 1.2017_01_26_14_55_59.0.svg"
   inkscape:export-filename="/home/fafoy/i3thuan5_32x32_white.png"
   inkscape:export-xdpi="18"
   inkscape:export-ydpi="18">
  <defs
     id="defs4" />
  <sodipodi:namedview
     id="base"
     pagecolor="#ffffff"
     bordercolor="#666666"
     borderopacity="1.0"
     inkscape:pageopacity="0.0"
     inkscape:pageshadow="2"
     inkscape:zoom="1.979899"
     inkscape:cx="104.12857"
     inkscape:cy="55.075682"
     inkscape:document-units="px"
     inkscape:current-layer="layer1"
     showgrid="true"
     showguides="true"
     inkscape:guide-bbox="true"
     fit-margin-top="0"
     fit-margin-left="0"
     fit-margin-right="0"
     fit-margin-bottom="0"
     inkscape:window-width="1920"
     inkscape:window-height="1029"
     inkscape:window-x="0"
     inkscape:window-y="0"
     inkscape:window-maximized="1">
    <inkscape:grid
       type="xygrid"
       id="grid3338"
       originx="18.511952"
       originy="-857.55946" />
    <sodipodi:guide
       position="83.511951,57.440536"
       orientation="0,1"
       id="guide3340" />
    <sodipodi:guide
       position="83.511951,27.440537"
       orientation="0,1"
       id="guide3342" />
    <sodipodi:guide
       position="83.511951,57.440536"
       orientation="1,0"
       id="guide3344" />
  </sodipodi:namedview>
  <metadata
     id="metadata7">
    <rdf:RDF>
      <cc:Work
         rdf:about="">
        <dc:format>image/svg+xml</dc:format>
        <dc:type
           rdf:resource="http://purl.org/dc/dcmitype/StillImage" />
        <dc:title></dc:title>
      </cc:Work>
    </rdf:RDF>
  </metadata>
  <g
     inkscape:label="Layer 1"
     inkscape:groupmode="layer"
     id="layer1"
     transform="translate(18.511954,-34.802743)">
    <rect
       style="fill:#ffffff;stroke:none"
       id="rect4208"
       width="160"
       height="160"
       x="-18.199953"
       y="34.861744" />
    <path
       style="color:#000000;clip-rule:nonzero;display:inline;overflow:visible;visibility:visible;opacity:1;isolation:auto;mix-blend-mode:normal;color-interpolation:sRGB;color-interpolation-filters:linearRGB;solid-color:#000000;solid-opacity:1;fill:#1a1a1a;fill-opacity:1;fill-rule:evenodd;stroke:none;stroke-width:1px;stroke-linecap:butt;stroke-linejoin:miter;stroke-miterlimit:4;stroke-dasharray:none;stroke-dashoffset:0;stroke-opacity:1;color-rendering:auto;image-rendering:auto;shape-rendering:auto;text-rendering:auto;enable-background:accumulate"
       d="m 23.494671,53.45856 c -6.295819,10.343405 -11.664756,23.626154 -5.733469,35.373637 2.864248,5.984165 3.934566,13.092723 0.393064,19.005613 -5.80566,13.07052 -17.80541029,25.17637 -15.6690254,40.54154 5.1413393,24.02346 28.1151254,41.11922 51.7073744,44.37157 21.317142,2.87466 44.649166,-3.00961 60.154625,-18.37748 7.648,-7.90186 10.66243,-19.83288 7.01771,-30.29427 -3.87246,-14.87343 -15.46824,-29.07569 -10.68097,-45.14137 2.01184,-6.793138 6.2916,-12.446444 10.02159,-18.327812 -10.76604,2.6548 -19.79211,10.202413 -24.793355,20.010172 -6.446968,8.15807 -8.017987,19.3148 -4.702353,29.09985 2.249257,6.9486 1.949245,15.60446 -4.45825,20.35159 -14.253396,12.88782 -40.615343,9.62777 -49.900075,-7.6267 -3.621599,-11.63528 5.262629,-21.98198 8.766408,-32.47775 3.793708,-9.7948 3.250165,-21.894752 -4.272517,-29.817644 C 36.70677,74.564383 34.335662,66.780724 34.51108,59.547519 34.711374,51.288587 39.999998,43.262433 43.445723,36.429932 36.333683,37.928584 27.100172,48.58416 23.494671,53.45856 Z"
       id="path3336-3"
       inkscape:connector-curvature="0"
       sodipodi:nodetypes="cccccccccccccccacc" />
    <path
       style="color:#000000;clip-rule:nonzero;display:inline;overflow:visible;visibility:visible;opacity:1;isolation:auto;mix-blend-mode:normal;color-interpolation:sRGB;color-interpolation-filters:linearRGB;solid-color:#000000;solid-opacity:1;fill:#ffffff;fill-opacity:1;fill-rule:evenodd;stroke:none;stroke-width:1px;stroke-linecap:butt;stroke-linejoin:miter;stroke-miterlimit:4;stroke-dasharray:none;stroke-dashoffset:0;stroke-opacity:1;color-rendering:auto;image-rendering:auto;shape-rendering:auto;text-rendering:auto;enable-background:accumulate"
       d="m 29.175193,68.737835 c 0.739723,10.308933 12.885875,17.337374 14.134823,27.597073 1.935274,15.897632 -15.44758,31.381992 -11.003395,46.768002 2.180631,7.54946 9.578886,13.44323 16.803349,16.53463 9.117471,3.90143 20.432589,4.36414 29.736795,0.93175 7.095236,-2.61748 13.88971,-8.27978 16.782466,-15.26731 3.865516,-9.33724 -3.894742,-20.47899 -1.443276,-30.28289 1.900362,-7.59993 12.746025,-20.831316 12.036195,-20.18569 -0.35494,0.322813 -2.9225,8.28592 -3.03584,12.60684 -0.50724,19.33958 20.27473,40.30055 10.61123,57.06042 C 102.80564,183.56446 73.207652,190.628 51.5791,186.57141 33.273736,183.1381 14.083668,168.07081 9.2682274,150.07955 4.7510231,133.20255 25.671029,118.04706 26.552463,100.59824 26.939735,92.931841 20.37554,85.836349 21.187892,78.20328 22.543223,65.468236 33.44442,49.398252 37.801535,43.560082 c 0,0 -9.261289,16.328995 -8.626342,25.177753 z"
       id="path3336"
       inkscape:connector-curvature="0"
       sodipodi:nodetypes="aaaaaaacaaaaaaca" />
    <path
       style="color:#000000;clip-rule:nonzero;display:inline;overflow:visible;visibility:visible;opacity:1;isolation:auto;mix-blend-mode:normal;color-interpolation:sRGB;color-interpolation-filters:linearRGB;solid-color:#000000;solid-opacity:1;fill:#ff0000;fill-opacity:1;fill-rule:evenodd;stroke:none;stroke-width:1px;stroke-linecap:butt;stroke-linejoin:miter;stroke-miterlimit:4;stroke-dasharray:none;stroke-dashoffset:0;stroke-opacity:1;color-rendering:auto;image-rendering:auto;shape-rendering:auto;text-rendering:auto;enable-background:accumulate"
       d="m 27.494141,77.355469 c -3.586378,7.850409 1.331789,15.64248 3.457031,22.976561 2.433936,16.35047 -12.446435,27.94505 -16.25586,42.69141 -1.911551,13.43387 8.442874,25.01692 18.617188,32.26172 20.843597,13.99489 51.157568,12.01156 69.98656,-4.5151 6.77492,-5.68223 9.07453,-14.92885 6.22633,-23.02592 -3.62466,-11.50043 -10.48993,-22.65561 -11.453124,-34.57812 -4.584556,7.46665 -1.648524,16.01114 0.04297,23.78906 1.741468,11.18112 -5.514538,21.77054 -15.535156,26.2168 -17.86665,9.00683 -43.81999,2.55134 -51.796877,-16.77344 C 26.10613,131.17664 39.744076,118.74012 41.005859,104.2207 41.83111,92.963859 30.081741,87.047868 27.779297,76.724609 l -0.285156,0.63086 z"
       id="path3336-7"
       inkscape:connector-curvature="0" />
    <circle
       style="fill:#000000;stroke:#000000"
       id="path4168"
       cx="65"
       cy="57.362221"
       r="19.999998" />
    <path
       style="fill:#ffffff;stroke:none"
       d="m 61.772277,44.253797 c -13.96267,-0.821432 -18.397386,16.66115 -7.389465,25.158312 9.30362,9.169335 25.601675,3.029542 24.494053,-10.231648 0.02709,-8.51181 -8.568319,-15.224866 -17.104588,-14.926664 z"
       id="path4168-3"
       inkscape:connector-curvature="0"
       sodipodi:nodetypes="cccc" />
    <path
       style="fill:#ff0000;stroke:none"
       d="M 62.016219,47.181145 C 50.253521,47.071144 47.901183,64.81881 59.224808,68.845604 68.359785,72.91041 77.43437,65.092407 72.4339,55.421181 70.467502,50.880047 66.996248,46.922191 62.016219,47.181145 Z"
       id="path4168-3-6"
       inkscape:connector-curvature="0"
       sodipodi:nodetypes="cccc" />
  </g>
</svg>
