<?xml version="1.0" encoding="utf-8"?>
<svg viewBox="19.633 22.404 192.54 250.545" width="192.54" height="250.545" version="1.1" id="svg8" xmlns="http://www.w3.org/2000/svg">
  <path style="color: rgb(0, 0, 0); clip-rule: nonzero; display: inline; overflow: visible; visibility: visible; opacity: 1; isolation: auto; mix-blend-mode: normal; color-interpolation: sRGB; color-interpolation-filters: linearRGB; fill-rule: evenodd; stroke: none; stroke-width: 1.41232px; stroke-linecap: butt; stroke-linejoin: miter; stroke-miterlimit: 4; stroke-dasharray: none; stroke-dashoffset: 0; stroke-opacity: 1; color-rendering: auto; image-rendering: auto; shape-rendering: auto; text-rendering: auto; fill-opacity: 0.15;" d="M 65.757812 0 C 54.409861 2.3910493 39.677599 19.392303 33.923828 27.169922 C 23.879444 43.674235 15.311468 64.869037 24.775391 83.613281 C 29.345642 93.160531 31.053016 104.50128 25.402344 113.93555 C 16.13897 134.7912 -3.0069847 154.10667 0.40234375 178.62305 C 8.6050693 216.95469 45.261865 244.23303 82.904297 249.42188 C 116.91849 254.00907 154.14524 244.61827 178.88477 220.09766 C 191.08858 207.48992 195.89849 188.45387 190.08398 171.76172 C 183.90511 148.03059 165.4018 125.37126 173.04102 99.736328 C 176.25121 88.898223 183.07975 79.877021 189.03125 70.492188 C 171.85326 74.729132 157.45028 86.771472 149.4707 102.41992 C 139.18481 115.43723 136.67822 133.23842 141.96875 148.85156 C 145.55744 159.93824 145.07922 173.74997 134.85547 181.32422 C 112.11296 201.88753 70.051512 196.68455 55.236328 169.1543 C 49.458547 150.58942 63.632713 134.0798 69.222656 117.33398 C 75.275838 101.70531 74.409515 82.399444 62.40625 69.757812 C 55.005719 60.846105 51.222315 48.428157 51.501953 36.886719 C 51.821136 23.70982 60.25967 10.901659 65.757812 0 z M 56.751953 11.376953 C 56.751953 11.376953 41.975651 37.431868 42.988281 51.550781 C 44.168977 67.998602 63.548239 79.213841 65.541016 95.583984 C 68.628336 120.94916 40.893141 145.65622 47.984375 170.20508 C 51.462907 182.25071 63.267607 191.65272 74.794922 196.58594 C 89.343179 202.81142 107.39734 203.54976 122.24219 198.07422 C 133.5633 193.898 144.40267 184.86312 149.01953 173.71289 C 155.18711 158.81579 142.80468 141.03733 146.7168 125.39453 C 149.46539 114.40272 163.89571 96.084407 165.73633 93.509766 C 165.81335 93.346787 165.88017 93.223508 165.92188 93.185547 C 166.02783 93.089236 165.92628 93.24407 165.73633 93.509766 C 164.76739 95.559968 161.24364 106.91555 161.07617 113.30273 C 160.26692 144.1604 193.42747 177.60493 178.00781 204.3457 C 160.46968 234.76273 113.24429 246.03514 78.734375 239.5625 C 49.526288 234.08413 18.907603 210.04124 11.224609 181.33594 C 4.0175659 154.40733 37.396069 130.22573 38.802734 102.38477 C 39.419916 90.152705 28.947095 78.832148 30.242188 66.652344 C 32.404442 46.333368 49.799126 20.692583 56.751953 11.376953 z " id="path3336-3" transform="translate(19.633,22.404)"/>
  <path style="color: rgb(0, 0, 0); clip-rule: nonzero; display: inline; overflow: visible; visibility: visible; opacity: 1; isolation: auto; mix-blend-mode: normal; color-interpolation: sRGB; color-interpolation-filters: linearRGB; fill-rule: evenodd; stroke: none; stroke-width: 1px; stroke-linecap: butt; stroke-linejoin: miter; stroke-miterlimit: 4; stroke-dasharray: none; stroke-dashoffset: 0; stroke-opacity: 1; color-rendering: auto; image-rendering: auto; shape-rendering: auto; text-rendering: auto; fill-opacity: 0.15;" d="M -22.859 25.839 C -26.911 34.708 -21.355 43.511 -18.954 51.796 C -16.204 70.268 -33.015 83.367 -37.319 100.027 C -39.478 115.204 -27.78 128.29 -16.286 136.475 C 7.262 152.286 41.509 150.045 62.782 131.374 C 70.436 124.954 73.034 114.508 69.816 105.36 C 65.721 92.368 57.965 79.765 56.877 66.296 C 51.697 74.731 55.014 84.384 56.925 93.171 C 58.893 105.803 50.695 117.767 39.374 122.79 C 19.189 132.965 -10.132 125.672 -19.143 103.84 C -24.427 86.643 -9.02 72.593 -7.594 56.19 C -6.662 43.472 -19.936 36.789 -22.537 25.126 L -22.859 25.839 Z" id="path3336-7" transform="matrix(1.412315, 0, 0, 1.412315, 92.222893, 51.211487)"/>
  <path style="stroke-width: 1.41232; fill-opacity: 0.15;" d="M 100.14844 1.4882812 A 31.911256 31.911256 0 0 0 68.236328 33.398438 A 31.911256 31.911256 0 0 0 100.14844 65.310547 A 31.911256 31.911256 0 0 0 132.06055 33.398438 A 31.911256 31.911256 0 0 0 100.14844 1.4882812 z M 92.955078 12.445312 C 93.621323 12.430557 94.303773 12.443418 95 12.484375 C 108.61895 12.008425 122.33339 22.71996 122.29102 36.300781 C 124.05782 57.460085 98.051874 67.257124 83.207031 52.626953 C 66.192343 39.492424 72.301491 12.902736 92.955078 12.445312 z " transform="translate(19.633,22.404)" id="path4168"/>
  <path style="stroke: none; fill-opacity: 0.15;" d="M 16.142 -8.251 C 2.853 -8.375 0.196 11.675 12.989 16.225 C 23.309 20.817 33.561 11.984 27.912 1.058 C 25.69 -4.072 21.768 -8.543 16.142 -8.251 Z" id="path4168-3-6" transform="matrix(1.412315, 0, 0, 1.412315, 92.222893, 51.211487)"/>
</svg>