<?xml version="1.0" encoding="utf-8"?>
<svg viewBox="19.633 22.404 192.54 250.545" width="192.54" height="250.545" xmlns="http://www.w3.org/2000/svg">
  <path style="color: rgb(0, 0, 0); clip-rule: nonzero; display: inline; overflow: visible; visibility: visible; opacity: 1; isolation: auto; mix-blend-mode: normal; color-interpolation: sRGB; color-interpolation-filters: linearRGB; fill-opacity: 1; fill-rule: evenodd; stroke: none; stroke-width: 1px; stroke-linecap: butt; stroke-linejoin: miter; stroke-miterlimit: 4; stroke-dasharray: none; stroke-dashoffset: 0; stroke-opacity: 1; color-rendering: auto; image-rendering: auto; shape-rendering: auto; text-rendering: auto; fill: rgb(233, 233, 233);" d="M -27.378 -1.159 C -34.49 10.527 -40.556 25.533 -33.855 38.805 C -30.619 45.565 -29.41 53.596 -33.411 60.276 C -39.97 75.043 -53.527 88.719 -51.113 106.078 C -45.305 133.219 -19.35 152.533 7.303 156.207 C 31.387 159.455 57.746 152.807 75.263 135.445 C 83.904 126.518 87.309 113.039 83.192 101.22 C 78.817 84.417 65.716 68.372 71.125 50.221 C 73.398 42.547 78.233 36.16 82.447 29.515 C 70.284 32.515 60.086 41.042 54.436 52.122 C 47.153 61.339 45.378 73.943 49.124 84.998 C 51.665 92.848 51.326 102.627 44.087 107.99 C 27.984 122.55 -1.798 118.867 -12.288 99.374 C -16.379 86.229 -6.342 74.539 -2.384 62.682 C 1.902 51.616 1.288 37.946 -7.211 28.995 C -12.451 22.685 -15.13 13.892 -14.932 5.72 C -14.706 -3.61 -8.731 -12.678 -4.838 -20.397 C -12.873 -18.704 -23.304 -6.666 -27.378 -1.159 Z" id="path3336-3" transform="matrix(1.412315, 0, 0, 1.412315, 92.222893, 51.211487)"/>
  <path style="color: rgb(0, 0, 0); clip-rule: nonzero; display: inline; overflow: visible; visibility: visible; opacity: 1; isolation: auto; mix-blend-mode: normal; color-interpolation: sRGB; color-interpolation-filters: linearRGB; fill: rgb(255, 255, 255); fill-opacity: 1; fill-rule: evenodd; stroke: none; stroke-width: 1px; stroke-linecap: butt; stroke-linejoin: miter; stroke-miterlimit: 4; stroke-dasharray: none; stroke-dashoffset: 0; stroke-opacity: 1; color-rendering: auto; image-rendering: auto; shape-rendering: auto; text-rendering: auto;" d="M -20.96 16.103 C -20.124 27.749 -6.402 35.69 -4.991 47.281 C -2.805 65.241 -22.443 82.735 -17.422 100.117 C -14.959 108.646 -6.601 115.304 1.561 118.797 C 11.862 123.205 24.645 123.727 35.156 119.85 C 43.172 116.893 50.848 110.496 54.117 102.601 C 58.484 92.053 49.716 79.465 52.486 68.389 C 54.633 59.803 66.886 44.855 66.084 45.584 C 65.683 45.949 62.782 54.945 62.654 59.827 C 62.081 81.676 85.56 105.357 74.642 124.291 C 62.224 145.828 28.786 153.809 4.351 149.226 C -16.33 145.347 -38.01 128.324 -43.45 107.999 C -48.553 88.932 -24.919 71.81 -23.923 52.097 C -23.486 43.436 -30.901 35.42 -29.984 26.796 C -28.453 12.409 -16.137 -5.746 -11.214 -12.342 C -11.214 -12.342 -21.677 6.106 -20.96 16.103 Z" id="path3336" transform="matrix(1.412315, 0, 0, 1.412315, 92.222893, 51.211487)"/>
  <path style="color: rgb(0, 0, 0); clip-rule: nonzero; display: inline; overflow: visible; visibility: visible; opacity: 1; isolation: auto; mix-blend-mode: normal; color-interpolation: sRGB; color-interpolation-filters: linearRGB; fill-opacity: 1; fill-rule: evenodd; stroke: none; stroke-width: 1px; stroke-linecap: butt; stroke-linejoin: miter; stroke-miterlimit: 4; stroke-dasharray: none; stroke-dashoffset: 0; stroke-opacity: 1; color-rendering: auto; image-rendering: auto; shape-rendering: auto; text-rendering: auto; fill: rgb(241, 241, 241);" d="M -22.859 25.839 C -26.911 34.708 -21.355 43.511 -18.954 51.796 C -16.204 70.268 -33.015 83.367 -37.319 100.027 C -39.478 115.204 -27.78 128.29 -16.286 136.475 C 7.262 152.286 41.509 150.045 62.782 131.374 C 70.436 124.954 73.034 114.508 69.816 105.36 C 65.721 92.368 57.965 79.765 56.877 66.296 C 51.697 74.731 55.014 84.384 56.925 93.171 C 58.893 105.803 50.695 117.767 39.374 122.79 C 19.189 132.965 -10.132 125.672 -19.143 103.84 C -24.427 86.643 -9.02 72.593 -7.594 56.19 C -6.662 43.472 -19.936 36.789 -22.537 25.126 L -22.859 25.839 Z" id="path3336-7" transform="matrix(1.412315, 0, 0, 1.412315, 92.222893, 51.211487)"/>
  <circle style="fill: rgb(233, 233, 233);" id="path4168" cx="19.513" cy="3.251" r="22.595" transform="matrix(1.412315, 0, 0, 1.412315, 92.222893, 51.211487)"/>
  <path style="fill: rgb(255, 255, 255); stroke: none;" d="M 15.867 -11.558 C 0.092 -12.486 -4.918 7.265 7.518 16.865 C 18.029 27.224 36.442 20.287 35.191 5.305 C 35.221 -4.311 25.51 -11.895 15.867 -11.558 Z" id="path4168-3" transform="matrix(1.412315, 0, 0, 1.412315, 92.222893, 51.211487)"/>
  <path style="stroke: none; fill: rgb(241, 241, 241);" d="M 16.142 -8.251 C 2.853 -8.375 0.196 11.675 12.989 16.225 C 23.309 20.817 33.561 11.984 27.912 1.058 C 25.69 -4.072 21.768 -8.543 16.142 -8.251 Z" id="path4168-3-6" transform="matrix(1.412315, 0, 0, 1.412315, 92.222893, 51.211487)"/>
</svg>