<?xml version="1.0" encoding="utf-8"?>
<svg width="45.155556mm" height="45.155556mm" viewBox="0 0 160 160" id="svg2" version="1.1" xmlns="http://www.w3.org/2000/svg">
  <path style="color:#000000;clip-rule:nonzero;display:inline;overflow:visible;visibility:visible;opacity:1;isolation:auto;mix-blend-mode:normal;color-interpolation:sRGB;color-interpolation-filters:linearRGB;solid-color:#000000;solid-opacity:1;fill:#1a1a1a;fill-opacity:1;fill-rule:evenodd;stroke:none;stroke-width:1px;stroke-linecap:butt;stroke-linejoin:miter;stroke-miterlimit:4;stroke-dasharray:none;stroke-dashoffset:0;stroke-opacity:1;color-rendering:auto;image-rendering:auto;shape-rendering:auto;text-rendering:auto;enable-background:accumulate" d="M 42.007 18.656 C 35.711 28.999 30.342 42.282 36.273 54.029 C 39.137 60.014 40.208 67.122 36.666 73.035 C 30.861 86.106 18.861 98.211 20.997 113.577 C 26.139 137.6 49.112 154.696 72.705 157.948 C 94.022 160.823 117.354 154.939 132.859 139.571 C 140.507 131.669 143.522 119.738 139.877 109.276 C 136.004 94.403 124.409 80.201 129.196 64.135 C 131.208 57.342 135.488 51.689 139.218 45.807 C 128.451 48.462 119.425 56.01 114.424 65.817 C 107.977 73.975 106.406 85.132 109.722 94.917 C 111.971 101.866 111.671 110.522 105.264 115.269 C 91.01 128.157 64.648 124.897 55.363 107.642 C 51.742 96.007 60.626 85.66 64.13 75.164 C 67.924 65.37 67.38 53.27 59.857 45.347 C 55.219 39.762 52.848 31.978 53.023 24.745 C 53.223 16.486 58.512 8.46 61.958 1.627 C 54.846 3.126 45.612 13.781 42.007 18.656 Z" id="path3336-3"/>
  <path style="color:#000000;clip-rule:nonzero;display:inline;overflow:visible;visibility:visible;opacity:1;isolation:auto;mix-blend-mode:normal;color-interpolation:sRGB;color-interpolation-filters:linearRGB;solid-color:#000000;solid-opacity:1;fill:#ffffff;fill-opacity:1;fill-rule:evenodd;stroke:none;stroke-width:1px;stroke-linecap:butt;stroke-linejoin:miter;stroke-miterlimit:4;stroke-dasharray:none;stroke-dashoffset:0;stroke-opacity:1;color-rendering:auto;image-rendering:auto;shape-rendering:auto;text-rendering:auto;enable-background:accumulate" d="M 47.687 33.935 C 48.427 44.244 60.573 51.272 61.822 61.532 C 63.757 77.43 46.374 92.914 50.819 108.3 C 52.999 115.85 60.397 121.743 67.622 124.835 C 76.739 128.736 88.055 129.199 97.359 125.767 C 104.454 123.149 111.248 117.487 114.141 110.499 C 118.007 101.162 110.246 90.02 112.698 80.216 C 114.598 72.616 125.444 59.385 124.734 60.031 C 124.379 60.353 121.812 68.317 121.698 72.637 C 121.191 91.977 141.973 112.938 132.309 129.698 C 121.318 148.762 91.72 155.825 70.091 151.769 C 51.786 148.335 32.596 133.268 27.78 115.277 C 23.263 98.4 44.183 83.244 45.064 65.795 C 45.452 58.129 38.887 51.034 39.7 43.401 C 41.055 30.665 51.956 14.596 56.313 8.757 C 56.313 8.757 47.052 25.086 47.687 33.935 Z" id="path3336"/>
  <path style="color:#000000;clip-rule:nonzero;display:inline;overflow:visible;visibility:visible;opacity:1;isolation:auto;mix-blend-mode:normal;color-interpolation:sRGB;color-interpolation-filters:linearRGB;solid-color:#000000;solid-opacity:1;fill:#ff0000;fill-opacity:1;fill-rule:evenodd;stroke:none;stroke-width:1px;stroke-linecap:butt;stroke-linejoin:miter;stroke-miterlimit:4;stroke-dasharray:none;stroke-dashoffset:0;stroke-opacity:1;color-rendering:auto;image-rendering:auto;shape-rendering:auto;text-rendering:auto;enable-background:accumulate" d="M 46.006 42.553 C 42.42 50.403 47.338 58.195 49.463 65.529 C 51.897 81.88 37.017 93.474 33.207 108.221 C 31.296 121.655 41.65 133.238 51.824 140.482 C 72.668 154.477 102.982 152.494 121.811 135.967 C 128.586 130.285 130.886 121.038 128.037 112.941 C 124.413 101.441 117.547 90.286 116.584 78.363 C 112 85.83 114.936 94.374 116.627 102.152 C 118.369 113.333 111.113 123.923 101.092 128.369 C 83.225 137.376 57.272 130.92 49.295 111.596 C 44.618 96.374 58.256 83.937 59.518 69.418 C 60.343 58.161 48.594 52.245 46.291 41.922 L 46.006 42.553 Z" id="path3336-7"/>
  <circle style="fill: rgb(26, 26, 26); stroke: rgb(26, 26, 26);" id="path4168" cx="83.512" cy="22.559" r="20"/>
  <path style="fill:#ffffff;stroke:none" d="M 80.284 9.451 C 66.322 8.63 61.887 26.112 72.895 34.609 C 82.198 43.779 98.496 37.639 97.389 24.378 C 97.416 15.866 88.82 9.153 80.284 9.451 Z" id="path4168-3"/>
  <path style="fill:#ff0000;stroke:none" d="M 80.528 12.378 C 68.765 12.268 66.413 30.016 77.737 34.043 C 86.872 38.108 95.946 30.29 90.946 20.618 C 88.979 16.077 85.508 12.119 80.528 12.378 Z" id="path4168-3-6"/>
</svg>