<?xml version="1.0" encoding="UTF-8" standalone="no"?>
<svg
   xmlns:dc="http://purl.org/dc/elements/1.1/"
   xmlns:cc="http://creativecommons.org/ns#"
   xmlns:rdf="http://www.w3.org/1999/02/22-rdf-syntax-ns#"
   xmlns:svg="http://www.w3.org/2000/svg"
   xmlns="http://www.w3.org/2000/svg"
   xmlns:sodipodi="http://sodipodi.sourceforge.net/DTD/sodipodi-0.dtd"
   xmlns:inkscape="http://www.inkscape.org/namespaces/inkscape"
   width="45.155556mm"
   height="45.155556mm"
   viewBox="0 0 160 160"
   id="svg2"
   version="1.1"
   sodipodi:docname="logo_nowhite.svg"
   inkscape:version="0.92.4 (unknown)">
  <metadata
     id="metadata13">
    <rdf:RDF>
      <cc:Work
         rdf:about="">
        <dc:format>image/svg+xml</dc:format>
        <dc:type
           rdf:resource="http://purl.org/dc/dcmitype/StillImage" />
        <dc:title></dc:title>
      </cc:Work>
    </rdf:RDF>
  </metadata>
  <defs
     id="defs11" />
  <sodipodi:namedview
     pagecolor="#ffffff"
     bordercolor="#666666"
     borderopacity="1"
     objecttolerance="10"
     gridtolerance="10"
     guidetolerance="10"
     inkscape:pageopacity="0"
     inkscape:pageshadow="2"
     inkscape:window-width="768"
     inkscape:window-height="480"
     id="namedview9"
     showgrid="false"
     inkscape:zoom="0.97779609"
     inkscape:cx="-3.7431798"
     inkscape:cy="144.54042"
     inkscape:window-x="0"
     inkscape:window-y="0"
     inkscape:window-maximized="0"
     inkscape:current-layer="svg2" />
  <path
     style="color:#000000;clip-rule:nonzero;display:inline;overflow:visible;visibility:visible;opacity:1;isolation:auto;mix-blend-mode:normal;color-interpolation:sRGB;color-interpolation-filters:linearRGB;solid-color:#000000;solid-opacity:1;fill:#1a1a1a;fill-opacity:1;fill-rule:evenodd;stroke:none;stroke-width:1.06666672px;stroke-linecap:butt;stroke-linejoin:miter;stroke-miterlimit:4;stroke-dasharray:none;stroke-dashoffset:0;stroke-opacity:1;color-rendering:auto;image-rendering:auto;shape-rendering:auto;text-rendering:auto;enable-background:accumulate"
     d="M 66.087891 1.7363281 C 58.501757 3.3352615 48.651974 14.70039 44.806641 19.900391 C 38.090907 30.932924 32.365006 45.100726 38.691406 57.630859 C 41.74634 64.01486 42.889462 71.597097 39.111328 77.904297 C 32.919328 91.846697 20.118084 104.75804 22.396484 121.14844 C 27.881285 146.77297 52.386867 165.00972 77.552734 168.47852 C 100.29087 171.54518 125.17813 165.26753 141.7168 148.875 C 149.87466 140.4462 153.08917 127.72001 149.20117 116.56055 C 145.06997 100.69601 132.70246 85.547223 137.80859 68.410156 C 139.95473 61.164289 144.52133 55.135462 148.5 48.861328 C 137.0152 51.693328 127.38713 59.744278 122.05273 70.205078 C 115.17593 78.906945 113.50004 90.806807 117.03711 101.24414 C 119.43604 108.65641 119.11538 117.88966 112.28125 122.95312 C 97.076983 136.70033 68.958688 133.22369 59.054688 114.81836 C 55.192287 102.40769 64.66865 91.371515 68.40625 80.175781 C 72.453183 69.728848 71.87219 56.822294 63.847656 48.371094 C 58.900456 42.41376 56.371927 34.109731 56.558594 26.394531 C 56.771927 17.584931 62.412157 9.0248617 66.087891 1.7363281 z M 60.066406 9.3398438 C 60.066406 9.3398438 50.187901 26.758332 50.865234 36.197266 C 51.654568 47.193533 64.611093 54.690765 65.943359 65.634766 C 68.007359 82.592633 49.465698 99.107797 54.207031 115.51953 C 56.532365 123.57286 64.424192 129.86007 72.130859 133.1582 C 81.85566 137.31927 93.925342 137.81314 103.84961 134.15234 C 111.41761 131.35981 118.66413 125.3191 121.75 117.86523 C 125.87373 107.90577 117.59547 96.022053 120.21094 85.564453 C 122.07275 78.11719 131.96305 65.63236 132.97656 64.179688 C 132.99719 64.144394 133.0346 64.046111 133.04883 64.033203 C 133.11043 63.977154 133.0663 64.051063 132.97656 64.179688 C 132.44821 65.083533 129.92758 73.043687 129.81055 77.478516 C 129.26975 98.10785 151.43717 120.46642 141.12891 138.34375 C 129.40517 158.67868 97.834606 166.21312 74.763672 161.88672 C 55.238338 158.22379 34.769879 142.15329 29.632812 122.96289 C 24.814679 104.96076 47.128626 88.793908 48.068359 70.181641 C 48.482226 62.004574 41.478503 54.436789 42.345703 46.294922 C 43.791037 32.709855 55.418939 15.568111 60.066406 9.3398438 z "
     transform="scale(0.93749997)"
     id="path3336-3" />
  <path
     style="color:#000000;clip-rule:nonzero;display:inline;overflow:visible;visibility:visible;opacity:1;isolation:auto;mix-blend-mode:normal;color-interpolation:sRGB;color-interpolation-filters:linearRGB;solid-color:#000000;solid-opacity:1;fill:#ff0000;fill-opacity:1;fill-rule:evenodd;stroke:none;stroke-width:1px;stroke-linecap:butt;stroke-linejoin:miter;stroke-miterlimit:4;stroke-dasharray:none;stroke-dashoffset:0;stroke-opacity:1;color-rendering:auto;image-rendering:auto;shape-rendering:auto;text-rendering:auto;enable-background:accumulate"
     d="M 46.006 42.553 C 42.42 50.403 47.338 58.195 49.463 65.529 C 51.897 81.88 37.017 93.474 33.207 108.221 C 31.296 121.655 41.65 133.238 51.824 140.482 C 72.668 154.477 102.982 152.494 121.811 135.967 C 128.586 130.285 130.886 121.038 128.037 112.941 C 124.413 101.441 117.547 90.286 116.584 78.363 C 112 85.83 114.936 94.374 116.627 102.152 C 118.369 113.333 111.113 123.923 101.092 128.369 C 83.225 137.376 57.272 130.92 49.295 111.596 C 44.618 96.374 58.256 83.937 59.518 69.418 C 60.343 58.161 48.594 52.245 46.291 41.922 L 46.006 42.553 Z"
     id="path3336-7" />
  <path
     style="fill:#1a1a1a;stroke:#1a1a1a;stroke-width:1.06666672"
     d="M 89.080078 2.7304688 A 21.333334 21.333334 0 0 0 67.746094 24.0625 A 21.333334 21.333334 0 0 0 89.080078 45.396484 A 21.333334 21.333334 0 0 0 110.41211 24.0625 A 21.333334 21.333334 0 0 0 89.080078 2.7304688 z M 84.269531 10.054688 C 84.714891 10.044811 85.171319 10.054665 85.636719 10.082031 C 94.741786 9.7641646 103.90966 16.924439 103.88086 26.003906 C 105.06166 40.148973 87.677107 46.697349 77.753906 36.916016 C 66.378973 28.135782 70.463386 10.360853 84.269531 10.054688 z "
     transform="scale(0.93749997)"
     id="path4168" />
  <path
     style="fill:#ff0000;stroke:none"
     d="M 80.528 12.378 C 68.765 12.268 66.413 30.016 77.737 34.043 C 86.872 38.108 95.946 30.29 90.946 20.618 C 88.979 16.077 85.508 12.119 80.528 12.378 Z"
     id="path4168-3-6" />
</svg>
