<?xml version="1.0" encoding="utf-8"?>
<!-- Generator: Adobe Illustrator 23.0.6, SVG Export Plug-In . SVG Version: 6.00 Build 0)  -->
<svg version="1.1" xmlns="http://www.w3.org/2000/svg" xmlns:xlink="http://www.w3.org/1999/xlink" x="0px" y="0px"
	 viewBox="0 0 128 128" style="enable-background:new 0 0 128 128;" xml:space="preserve">
<style type="text/css">
	.st0{fill-rule:evenodd;clip-rule:evenodd;fill:#1A1A1A;}
	.st1{fill:#1A1A1A;stroke:#1A1A1A;}
	.st2{display:none;}
	.st3{display:inline;fill-rule:evenodd;clip-rule:evenodd;fill:#FF0000;}
	.st4{fill-rule:evenodd;clip-rule:evenodd;fill:#FF0000;}
	.st5{fill:#FF0000;}
</style>
<g id="圖層_2">
	<path id="path3336-3_1_" class="st0" d="M25.9,24C25.8,24,25.8,24,25.9,24c1.2,0.2,3.9,8,4.4,9.3c1.2,3.1,2,6.2,2.4,9.5
		c2.1,18-15.4,30.8-14,48.4c1.1,14.6,12.2,24.2,24.8,29.6c13.3,5.7,28.6,7,42.5,2.8c6.2-1.8,12.1-4.7,16.9-9s8.4-10,9.5-16.4
		c1.2-6.7-0.6-13.6-2.8-20.1c-2.2-6.5-5-12.8-6-19.6c-1-6.8,0.1-14.2,4.7-19.3C96.7,43.8,88.7,56,89.1,68.3c0.2,6.8,2.7,14-0.1,20.3
		c-1.9,4.4-6.2,7.5-10.8,8.9c-4.6,1.4-9.5,1.3-14.3,0.8c-4.1-0.5-8.2-1.2-11.8-3.2c-3.6-1.9-6.7-5.2-7.6-9.2
		c-1.6-6.8,2.2-12.2,5-19.9c3.2-8.7,2.9-18.7-1.7-26.6C43.2,31.3,34.9,25.5,25.9,24z"/>
	<circle id="path4168" class="st1" cx="67.2" cy="17.8" r="16"/>
</g>
<g id="圖層_3" class="st2">
	<path id="path3336-7_1_" class="st3" d="M23.9,91.1c0.9,25.9,42.1,33.7,62.2,27.2c7.3-2.4,14.3-6.5,18.1-13.2
		c4.2-7.5,3.5-16.9,1.3-25.2s-6-16.3-7.4-24.8c-3.7,3-4.4,8.5-3.8,13.2c0.6,4.8,1.8,9.4,2.1,14.2c0.9,11.5-3.4,16.7-12,20
		c-8.5,3.3-22,2.9-30.6-0.2c-6.4-2.3-12.9-6.4-15-12.9c-2-6,0.1-12.7,2.7-18.5c2.6-5.8,5.7-11.7,5.8-18.1c0-10.9-9-20-10.4-30.9
		c-2,3.4-1.9,7.5-1.2,11.4c0.7,3.8,2,7.6,2.2,11.5c0.5,7-2.2,13.9-5.3,20.2c-3.1,6.3-6.7,12.6-8.1,19.5C24,86.8,23.9,89,23.9,91.1z"
		/>
</g>
<g id="svg2">
	<path id="path3336-7" class="st4" d="M24.1,91c0.1,0.9,0.2,1.8,0.4,2.6c3.1,16.6,20.5,24.7,35.8,26.8c11.5,1.6,23.5-0.5,33.7-6.1
		c5.8-3.2,11.2-7.7,13.3-13.9c2.5-7.5-0.3-15.7-3.5-22.9c-3.2-7.2-6.9-14.7-6.3-22.6c-3.4,3.9-3.6,9.7-2.8,14.8
		c0.8,5.1,2.3,10.3,1.6,15.4c-1,7.6-6.7,14-13.7,17.2c-7,3.1-15,3.2-22.5,1.8c-4.8-0.9-9.5-2.5-13.5-5.4s-7.1-7-8.1-11.8
		c-1-5.5,0.9-11.1,3.1-16.2c2.2-5.1,4.8-10.3,5.2-15.8c0.6-8.3-4.3-16.7-11.9-20.3c3.6,7.6,3.8,16.7,0.6,24.4
		C30.9,69.6,23.1,79.3,24.1,91z"/>
	<path id="path4168-3" class="st5" d="M64.7,8.5c-10.4-0.6-13.6,12.3-5.5,18.7c6.9,6.8,19,2.2,18.2-7.6C77.4,13.3,71.1,8.3,64.7,8.5
		z"/>
</g>
</svg>
