<?xml version="1.0" encoding="utf-8"?>
<!-- Generator: Adobe Illustrator 23.0.6, SVG Export Plug-In . SVG Version: 6.00 Build 0)  -->
<svg version="1.1" id="圖層_1" xmlns="http://www.w3.org/2000/svg" xmlns:xlink="http://www.w3.org/1999/xlink" x="0px" y="0px"
	 viewBox="0 0 94.2 124.8" style="enable-background:new 0 0 94.2 124.8;" xml:space="preserve">
<style type="text/css">
	.st0{display:none;}
	.st1{display:inline;fill-rule:evenodd;clip-rule:evenodd;fill:#FF0000;}
	.st2{fill-rule:evenodd;clip-rule:evenodd;fill:#1A1A1A;}
	.st3{fill-rule:evenodd;clip-rule:evenodd;fill:#FF0000;}
	.st4{fill:#1A1A1A;stroke:#1A1A1A;}
	.st5{fill:#FF0000;}
</style>
<g id="圖層_3" class="st0">
	<path id="path3336-7_1_" class="st1" d="M6.7,90.5c0.9,25.9,42.1,33.7,62.2,27.2c7.3-2.4,14.3-6.5,18.1-13.2
		c4.2-7.5,3.5-16.9,1.3-25.2s-6-16.3-7.4-24.8c-3.7,3-4.4,8.5-3.8,13.2c0.6,4.8,1.8,9.4,2.1,14.2c0.9,11.5-3.4,16.7-12,20
		c-8.5,3.3-22,2.9-30.6-0.2c-6.4-2.3-12.9-6.4-15-12.9c-2-6,0.1-12.7,2.7-18.5c2.6-5.8,5.7-11.7,5.8-18.1c0-10.9-9-20-10.4-30.9
		c-2,3.4-1.9,7.5-1.2,11.4c0.7,3.8,2,7.6,2.2,11.5c0.5,7-2.2,13.9-5.3,20.2S8.7,77,7.3,83.9C6.8,86.2,6.7,88.4,6.7,90.5z"/>
</g>
<path id="path3336-3_2_" class="st2" d="M7.3,22.7C7.2,22.7,7.2,22.7,7.3,22.7c1.2,0.2,3.9,8,4.4,9.3c1.2,3.1,2,6.2,2.4,9.5
	c2.1,18-15.4,30.8-14,48.4c1.1,14.6,12.2,24.2,24.8,29.6c13.3,5.7,28.6,7,42.5,2.8c6.2-1.8,12.1-4.7,16.9-9s8.4-10,9.5-16.4
	c1.2-6.7-0.6-13.6-2.8-20.1c-2.2-6.5-5-12.8-6-19.6s0.1-14.2,4.7-19.3C78.1,42.5,70.1,54.7,70.5,67c0.2,6.8,2.7,14-0.1,20.3
	c-1.9,4.4-6.2,7.5-10.8,8.9c-4.6,1.4-9.5,1.3-14.3,0.8c-4.1-0.5-8.2-1.2-11.8-3.2c-3.6-1.9-6.7-5.2-7.6-9.2
	c-1.6-6.8,2.2-12.2,5-19.9c3.2-8.7,2.9-18.7-1.7-26.6C24.6,30,16.3,24.2,7.3,22.7z"/>
<path class="st3" d="M50.3,119.1c-7.9,0-15.9-1.7-23.2-4.8c-7.5-3.2-20.3-10.7-21.4-24.8c-0.6-7,2.8-13.6,6.4-20.6
	c4.1-8.1,8.8-17.2,7.6-28.1c-0.3-2.4-0.8-4.7-1.4-7c2.4,2,4.4,4.4,6,7.1c3.6,6.2,4.1,14.3,1.3,21.8c-0.6,1.8-1.4,3.5-2.1,5.1
	c-2.3,5.5-4.8,11.1-3.1,18.1c1.2,5.2,5.1,10,10.4,12.9c4.4,2.4,9.2,3.3,13.8,3.8c2.5,0.3,4.6,0.4,6.5,0.4c3.8,0,7.1-0.5,10.1-1.4
	c6.7-2,11.9-6.4,14.4-12.1c2.6-5.8,1.8-11.8,1.1-17c-0.3-2-0.5-3.9-0.6-5.7c-0.1-4.2,0.9-8.3,2.9-12c0.1,1.1,0.2,2.1,0.3,3.2
	c0.8,5.7,2.7,10.8,4.5,15.8c0.6,1.6,1.2,3.2,1.7,4.8c1.9,5.7,3.6,11.8,2.6,17.3c-0.8,4.8-3.6,9.5-7.7,13.2
	c-3.8,3.4-8.8,6.1-14.7,7.8C60.8,118.4,55.7,119.1,50.3,119.1z"/>
<circle id="path4168_1_" class="st4" cx="48.6" cy="16.5" r="16"/>
<path id="path4168-3_1_" class="st5" d="M46.1,7.2c-10.4-0.6-13.6,12.3-5.5,18.7c6.9,6.8,19,2.2,18.2-7.6C58.8,12,52.5,7,46.1,7.2z"
	/>
</svg>
